<?xml version="1.0" encoding="UTF-8"?>
<svg xmlns="http://www.w3.org/2000/svg" version="1.1" viewBox="0 0 2000 664.2">
  <defs>
    <style>
      .cls-1 {
        fill: #54086f;
      }

      .cls-2 {
        fill: #ffb200;
      }
    </style>
  </defs>
  <!-- Generator: Adobe Illustrator 28.7.1, SVG Export Plug-In . SVG Version: 1.2.0 Build 142)  -->
  <g>
    <g id="Layer_1">
      <g>
        <path class="cls-1" d="M244.1,282h243.8c-10.5,121.4-112.3,216.6-236.3,216.6s-148.8-38.5-191.9-97.8h61.4c16,0,32,3.8,45.9,11.6,25,14.1,53.9,22.1,84.6,22.1h0c41.1,0,78.9-14.3,108.6-38.3,7.8-6.3,8.4-17.9,1.4-24.9l-14.4-14.4c-5.9-5.9-15.4-6.6-22-1.5-20.3,15.9-45.8,25.3-73.5,25.3h0c-33,0-62.8-13.4-84.4-35-21.6-21.6-35-51.5-35-84.4s13.4-62.8,35-84.4c21.6-21.6,51.5-35,84.4-35h0c33,0,62.8,13.4,84.4,35,10.9,10.9,19.6,23.8,25.7,38.2,3.2,7.5-2.4,15.8-10.6,15.8h-107c-8.4,0-15.3,6.8-15.3,15.3v20.6c0,8.4,6.8,15.3,15.3,15.3ZM83.8,349.6H31.3c-11-27.3-17-57.1-17-88.3C14.3,130.3,120.5,24.1,251.5,24.1s220.3,90.1,235.3,206.7h-31.8c-18.3,0-34.6-11.5-40.8-28.7-8.7-24-22.6-45.5-40.3-63.3-31.3-31.3-74.6-50.7-122.4-50.7h0c-47.8,0-91.1,19.4-122.4,50.7-31.3,31.3-50.7,74.6-50.7,122.4s5.6,50.1,15.7,72.1c3.5,7.6-2,16.2-10.3,16.2ZM663.2,289.2c-20.5,0-36,7.9-46.4,21.7l-.8-18.8h-46.1v215.2h47.8v-79.9c10.4,13.2,25.6,20.8,45.6,20.8,40.5,0,73.1-32.4,73.1-80.2s-32.6-78.8-73.1-78.8ZM652.5,407.1c-20.8,0-34.9-15.5-34.9-38.5s14.1-38.5,34.9-38.5,34.6,15.5,34.6,38.3-14.1,38.8-34.6,38.8ZM828.1,289.2c-27.9,0-47.8,6.5-65.3,19.1l20.3,28.1c9.3-6.5,19.7-9.8,32.6-9.8,20.3,0,31.8,8.7,32.4,25-9.8-2-19.7-2.8-28.4-2.8-39.9,0-66.4,20-66.4,50.1s21.7,49.2,54.3,49.2,31.5-7,41.6-20.3l.6,17.4h46.1v-96.2c0-36.3-27.3-59.9-67.8-59.9ZM821.3,414.1c-12.9,0-18.6-6.2-18.6-16s9-16.6,23.1-16.6,14.3.8,22.2,2.2c-.3,19.1-12.4,30.4-26.7,30.4ZM996.3,389.6l-36-97.6h-52.3l63.9,149.1-4.5,9.6c-5.9,11-11,18.6-22.8,18.6s-9-.8-12.4-2.5l-4.8,38.5c6.2,3.1,15.5,4.8,25,4.8,33.2,0,48.1-20.3,61.6-53.5l67.2-164.6h-52l-32.9,97.6ZM1280.5,289.2c-18.6,0-36,6.5-47.8,20-9.8-12.7-25-20-43.6-20s-32.4,5.9-43.3,18.6l-.6-15.8h-46.1v153.3h47.8v-88.9c0-16,10.1-26.4,25.3-26.4s25,10.4,25,26.4v88.9h47.8v-88.9c0-16,10.1-26.4,25.3-26.4s25,10.4,25,26.4v88.9h47.8v-96.2c0-36-25.3-59.9-62.7-59.9ZM1447.3,289.2c-47.3,0-78.5,32.6-78.5,81s32.4,77.9,80.7,77.9,54.3-13.5,67.5-33.5l-37.1-18c-7.3,8.7-18,14.1-30.9,14.1s-26.7-9.6-29.5-25.3h105.2c.6-5.3,1.1-12.7,1.1-19.1,0-46.4-31.5-77.1-78.5-77.1ZM1419.7,353.3c3.1-17.2,11.8-26.7,27.6-26.7s25.3,9.3,28.4,26.7h-56ZM1645.9,289.2c-18,0-35.2,6.5-47.3,20l-.6-17.2h-46.1v153.3h47.8v-88.9c0-16,11.5-26.4,29.3-26.4s29,10.4,29,26.4v88.9h47.8v-96.2c0-36-23.9-59.9-59.9-59.9ZM1797.6,386.8v-55.7h39.9v-39.1h-39.9v-45h-47.8v45h-24.5v39.1h24.5v65.8c0,30.7,20.3,51.2,50.1,51.2s27.9-2.3,40-7.6v-38.3c-8.2,3.4-16.3,4.8-24.5,4.8s-17.7-8.2-17.7-20.3ZM1938.2,350.5l-10.7-2.8c-11.5-3.1-20-6.2-20-12.4s7.3-8.7,18-8.7,25.6,3.1,37.7,9.6l20-30.9c-15.5-10.7-36.3-16-60.8-16-38.3,0-63.6,21.4-63.6,53.7s18.3,35.2,45,41.6l11,2.8c13.8,3.7,23.1,7,23.1,13.8s-7.3,9.8-17.4,9.8c-14.6,0-28.7-2.8-43.9-11l-18,29c15.5,12.9,36.9,19.1,61,19.1,39.9,0,67-20,67-50.4s-20.5-40.2-48.4-47.3ZM645,240.6c29.8,0,54.3-13.5,67.5-33.5l-37.1-18c-7.3,8.7-18,14.1-30.9,14.1s-26.7-9.6-29.5-25.3h105.2c.6-5.3,1.1-12.7,1.1-19.1,0-46.4-31.5-77.1-78.5-77.1s-78.5,32.6-78.5,81,32.4,77.9,80.7,77.9ZM642.8,119.1c16,0,25.3,9.3,28.4,26.7h-56c3.1-17.2,11.8-26.7,27.6-26.7ZM802.9,203.5c-14.6,0-28.7-2.8-43.9-11l-18,29c15.5,12.9,36.9,19.1,61,19.1,39.9,0,67-20,67-50.4s-20.5-40.2-48.4-47.3l-10.7-2.8c-11.5-3.1-20-6.2-20-12.4s7.3-8.7,18-8.7,25.6,3.1,37.7,9.6l20-30.9c-15.5-10.7-36.3-16-60.8-16-38.3,0-63.6,21.4-63.6,53.7s18.3,35.2,45,41.6l11,2.8c13.8,3.7,23.1,7,23.1,13.8s-7.3,9.8-17.4,9.8ZM908.4,189.4c0,30.7,20.3,51.2,50.1,51.2s27.9-2.3,39.9-7.6v-38.3c-8.2,3.4-16.3,4.8-24.5,4.8s-17.7-8.2-17.7-20.3v-55.7h40v-39.1h-40v-45h-47.8v45h-24.5v39.1h24.5v65.8ZM1023.7,237.8h47.8V84.5h-47.8v153.3ZM1047.9,66.8c16,0,27.6-11.5,27.6-27.6s-11.5-27.6-27.6-27.6-27.9,11.5-27.9,27.6,11.8,27.6,27.9,27.6ZM1096.6,191.4c0,29.5,21.7,49.2,54.3,49.2s31.5-7,41.6-20.3l.6,17.4h46.1v-96.2c0-36.3-27.3-59.9-67.8-59.9s-47.8,6.5-65.3,19.1l20.3,28.1c9.3-6.5,19.7-9.8,32.6-9.8,20.3,0,31.8,8.7,32.4,25-9.8-2-19.7-2.8-28.4-2.8-39.9,0-66.4,20-66.4,50.1ZM1191.4,176.2c-.3,19.1-12.4,30.4-26.7,30.4s-18.6-6.2-18.6-16,9-16.6,23.1-16.6,14.3.8,22.2,2.3Z"/>
        <g>
          <path class="cls-2" d="M735.9,607.2c0,12-8.4,20-21.2,20h-12.4v20.3h-11.3v-59.5h24.1c12.5,0,20.8,7.7,20.8,19.2ZM724.3,607.6c0-6.1-4.1-10.2-10.4-10.2h-11.6v20.4h11.6c6.4,0,10.4-4.1,10.4-10.2Z"/>
          <path class="cls-2" d="M787.5,635.7h-27.4l-4.8,11.8h-12.1l25.4-59.5h10.5l25.4,59.5h-12.1l-4.8-11.8ZM783.7,626.2l-9.9-24.2-9.9,24.2h19.8Z"/>
          <path class="cls-2" d="M862.7,588l-21.2,37.5v22h-11.3v-22l-21.3-37.5h12.1l14.9,27.5,14.8-27.5h12.1Z"/>
          <path class="cls-2" d="M989.3,588l-20.5,59.5h-10.5l-14.5-43.5-14.4,43.5h-10.5l-20.6-59.5h12.1l14.3,44.3,13.7-44.3h10.6l13.9,44.3,14.2-44.3h12.1Z"/>
          <path class="cls-2" d="M1006.3,588h11.3v59.5h-11.3v-59.5Z"/>
          <path class="cls-2" d="M1083.2,597.4h-18.2v50.1h-11.3v-50.1h-18.1v-9.4h47.6v9.4Z"/>
          <path class="cls-2" d="M1155.7,588v59.5h-11.3v-25.6h-31.8v25.6h-11.3v-59.5h11.3v24.5h31.8v-24.5h11.3Z"/>
          <path class="cls-2" d="M1205.4,617.6c0-18.3,12.6-30.4,31.5-30.4s17.6,3.2,23.5,9.6l-7.2,7.2c-3.4-4.3-9.1-7.4-16.2-7.4-12,0-19.9,8.4-19.9,21.1s8.1,21.2,20.1,21.2,13.6-3.6,17.4-9.4l7.6,6.8c-5.7,7.8-14.4,12-25.2,12-18.9,0-31.6-12.3-31.6-30.7Z"/>
          <path class="cls-2" d="M1303.9,625.6h-12.1v21.9h-11.3v-59.5h24.9c12.5,0,20.8,7.6,20.8,18.8s-4.1,13.7-11,16.6l15.7,24h-13.3l-13.6-21.9ZM1291.7,616.2h11.5c6.8,0,11.3-3.8,11.3-9.4s-4.2-9.4-10.5-9.4h-12.3v18.8Z"/>
          <path class="cls-2" d="M1393.6,588l-21.2,37.5v22h-11.3v-22l-21.3-37.5h12.1l14.9,27.5,14.8-27.5h12.1Z"/>
          <path class="cls-2" d="M1456.2,607.2c0,12-8.4,20-21.2,20h-12.4v20.3h-11.3v-59.5h24.1c12.5,0,20.8,7.7,20.8,19.2ZM1444.5,607.6c0-6.1-4.1-10.2-10.4-10.2h-11.6v20.4h11.6c6.4,0,10.4-4.1,10.4-10.2Z"/>
          <path class="cls-2" d="M1516.7,597.4h-18.2v50.1h-11.3v-50.1h-18.1v-9.4h47.6v9.4Z"/>
          <path class="cls-2" d="M1528.7,617.7c0-18.3,12.5-30.6,31.3-30.6s31.2,12.2,31.2,30.6-12.5,30.6-31.2,30.6-31.3-12.2-31.3-30.6ZM1579.4,617.7c0-12.7-7.8-21.1-19.5-21.1s-19.5,8.4-19.5,21.1,7.9,21.1,19.5,21.1,19.5-8.4,19.5-21.1Z"/>
        </g>
        <path class="cls-2" d="M592.6,595.7v7.5h24.9v-7.5c0-6.9-5.6-12.4-12.4-12.4s-12.4,5.6-12.4,12.4ZM582.7,603.2v-7.5c0-12.4,10-22.4,22.4-22.4s22.4,10,22.4,22.4v7.5h2.5c5.5,0,10,4.5,10,10v29.9c0,5.5-4.5,10-10,10h-49.8c-5.5,0-10-4.5-10-10v-29.9c0-5.5,4.5-10,10-10h2.5Z"/>
      </g>
    </g>
  </g>
</svg>
