<svg width="25" height="25" viewBox="0 0 25 25" fill="none" xmlns="http://www.w3.org/2000/svg">
    <path fillRrule="evenodd" clip-rule="evenodd" d="M12.9453 7.93188C14.0453 7.93188 14.9453 7.03188 14.9453 5.93188C14.9453 4.83188 14.0453 3.93188 12.9453 3.93188C11.8453 3.93188 10.9453 4.83188 10.9453 5.93188C10.9453 7.03188 11.8453 7.93188 12.9453 7.93188ZM12.9453 10.9319C11.8453 10.9319 10.9453 11.8319 10.9453 12.9319C10.9453 14.0319 11.8453 14.9319 12.9453 14.9319C14.0453 14.9319 14.9453 14.0319 14.9453 12.9319C14.9453 11.8319 14.0453 10.9319 12.9453 10.9319ZM10.9453 19.9319C10.9453 18.8319 11.8453 17.9319 12.9453 17.9319C14.0453 17.9319 14.9453 18.8319 14.9453 19.9319C14.9453 21.0319 14.0453 21.9319 12.9453 21.9319C11.8453 21.9319 10.9453 21.0319 10.9453 19.9319Z" fill="#667085"/>
</svg>
