<svg width="100" height="100" viewBox="0 0 100 100" fill="none" xmlns="http://www.w3.org/2000/svg">
    <path d="M43.3895 4.36325C47.3992 1.71668 52.6008 1.71669 56.6105 4.36326L64.3306 9.45893C65.6078 10.3019 67.0344 10.8929 68.5336 11.1999L77.5957 13.0556C82.3024 14.0195 85.9805 17.6976 86.9444 22.4043L88.8001 31.4664C89.1071 32.9656 89.6981 34.3922 90.5411 35.6694L95.6367 43.3895C98.2833 47.3992 98.2833 52.6008 95.6367 56.6105L90.5411 64.3306C89.6981 65.6078 89.1071 67.0344 88.8001 68.5336L86.9444 77.5957C85.9805 82.3024 82.3024 85.9805 77.5957 86.9444L68.5336 88.8001C67.0344 89.1071 65.6078 89.6981 64.3306 90.5411L56.6105 95.6367C52.6008 98.2833 47.3992 98.2833 43.3895 95.6367L35.6694 90.5411C34.3922 89.6981 32.9656 89.1071 31.4664 88.8001L22.4043 86.9444C17.6976 85.9805 14.0195 82.3024 13.0556 77.5957L11.1999 68.5336C10.8929 67.0344 10.3019 65.6078 9.45892 64.3306L4.36325 56.6105C1.71668 52.6008 1.71669 47.3992 4.36326 43.3895L9.45893 35.6694C10.3019 34.3922 10.8929 32.9656 11.1999 31.4664L13.0556 22.4043C14.0195 17.6976 17.6976 14.0195 22.4043 13.0556L31.4664 11.1999C32.9656 10.8929 34.3922 10.3019 35.6694 9.45892L43.3895 4.36325Z" fill="#9CDEA6"/>
    <rect width="38" height="46" transform="translate(31 27)" fill="white"/>
    <path d="M85.8496 45.2751L80.7496 39.3501C79.7746 38.2251 78.9871 36.1251 78.9871 34.6251V28.2501C78.9871 24.2751 75.7246 21.0126 71.7496 21.0126H65.3746C63.9121 21.0126 61.7746 20.2251 60.6496 19.2501L54.7246 14.1501C52.1371 11.9376 47.8996 11.9376 45.2746 14.1501L39.3871 19.2876C38.2621 20.2251 36.1246 21.0126 34.6621 21.0126H28.1746C24.1996 21.0126 20.9371 24.2751 20.9371 28.2501V34.6626C20.9371 36.1251 20.1496 38.2251 19.2121 39.3501L14.1496 45.3126C11.9746 47.9001 11.9746 52.1001 14.1496 54.6876L19.2121 60.6501C20.1496 61.7751 20.9371 63.8751 20.9371 65.3376V71.7501C20.9371 75.7251 24.1996 78.9876 28.1746 78.9876H34.6621C36.1246 78.9876 38.2621 79.7751 39.3871 80.7501L45.3121 85.8501C47.8996 88.0626 52.1371 88.0626 54.7621 85.8501L60.6871 80.7501C61.8121 79.7751 63.9121 78.9876 65.4121 78.9876H71.7871C75.7621 78.9876 79.0246 75.7251 79.0246 71.7501V65.3751C79.0246 63.9126 79.8121 61.7751 80.7871 60.6501L85.8871 54.7251C88.0621 52.1376 88.0621 47.8626 85.8496 45.2751ZM65.5996 42.9126L47.4871 61.0251C46.9621 61.5501 46.2496 61.8501 45.4996 61.8501C44.7496 61.8501 44.0371 61.5501 43.5121 61.0251L34.4371 51.9501C33.3496 50.8626 33.3496 49.0626 34.4371 47.9751C35.5246 46.8876 37.3246 46.8876 38.4121 47.9751L45.4996 55.0626L61.6246 38.9376C62.7121 37.8501 64.5121 37.8501 65.5996 38.9376C66.6871 40.0251 66.6871 41.8251 65.5996 42.9126Z" fill="#27B73E"/>
</svg>
