<svg width="718" height="723" viewBox="0 0 718 723" fill="none" xmlns="http://www.w3.org/2000/svg">
<path d="M491.051 226.158C512.315 247.852 526.374 267.58 530.401 298.453C527.655 314.01 527.655 314.01 520.334 321.331C506.778 322.486 493.18 323.169 479.583 323.647C471.349 323.954 463.115 324.261 454.632 324.577C445.964 324.864 437.296 325.152 428.365 325.449C419.669 325.765 410.972 326.081 402.012 326.407C380.446 327.186 358.879 327.933 337.311 328.652C337.311 345.563 337.311 362.474 337.311 379.898C462.938 382.314 588.566 384.73 718 387.219C707.588 491.339 676.922 569.055 596.146 638.019C509.996 703.325 423.989 732.33 314.89 719.865C222.6 706.938 160.769 672.723 95.7193 606.848C90.208 601.648 84.6967 596.448 79.0184 591.09C66.4355 577.564 66.4355 577.564 66.4355 562.922C136.651 560.424 192.034 563.328 256.895 591.233C320.951 616.144 395.072 618.35 459.479 593.578C482.092 583.385 500.864 570.94 520.334 555.601C516.136 534.61 514.028 527.332 498.372 511.675C475.665 513.622 460.448 519.698 440.262 530.435C394.927 550.518 337.516 548.473 290.182 536.412C241.84 515.168 204.589 472.416 184.028 424.282C167.279 370.58 173.244 323.837 195.81 272.744C222.09 225.981 257.652 198.719 308.027 182.233C378.045 163.967 434.919 182.446 491.051 226.158Z" fill="white"/>
<path d="M591.027 79.5106C657.079 134.421 701.856 207.176 718 292.047C718 301.711 718 311.374 718 321.331C706.411 321.729 694.819 322.011 683.226 322.246C673.543 322.501 673.543 322.501 663.665 322.761C642.658 321.169 632.497 319.158 615.507 306.689C603.238 286.242 603.238 286.242 591.256 261.39C554.841 191.414 514.175 151.759 439.804 123.665C369.487 102.295 307.66 109.306 240.766 138.765C171.947 176.073 134.157 237.131 112.192 310.349C106.681 365.452 112.876 410.612 128.235 464.061C132.324 482.392 132.324 482.392 125.003 497.033C91.1804 497.033 57.3576 497.033 22.5099 497.033C-8.98468 389.427 -11.2075 292.806 40.2689 190.84C88.9208 106.737 156.034 44.7338 249.459 13.8509C372.823 -17.0784 488.285 3.36021 591.027 79.5106Z" fill="white"/>
</svg>
